<?xml version="1.0" standalone="no"?>
<!DOCTYPE svg PUBLIC "-//W3C//DTD SVG 20010904//EN"
 "http://www.w3.org/TR/2001/REC-SVG-20010904/DTD/svg10.dtd">
<svg version="1.0" xmlns="http://www.w3.org/2000/svg"
 width="2000.000000pt" height="415.000000pt" viewBox="0 0 2000.000000 415.000000"
 preserveAspectRatio="xMidYMid meet">

<g transform="translate(0.000000,415.000000) scale(0.100000,-0.100000)"
fill="#000000" stroke="none">
<path d="M18425 4108 c-3 -7 -25 -130 -50 -272 -52 -297 -68 -339 -143 -383
-73 -43 -140 -53 -384 -60 l-228 -6 0 -126 c0 -69 -3 -224 -7 -343 l-6 -218
236 0 236 0 4 -847 c4 -819 5 -852 25 -961 90 -470 312 -705 747 -788 111 -22
415 -25 555 -5 105 14 240 43 313 67 l47 16 0 409 c0 225 -2 409 -4 409 -2 0
-27 -11 -55 -25 -93 -47 -193 -67 -341 -68 -108 -1 -147 2 -194 18 -115 37
-183 101 -223 210 -17 46 -18 104 -21 793 l-3 742 411 0 410 0 0 360 0 360
-410 0 -410 0 0 365 0 365 -250 0 c-192 0 -252 -3 -255 -12z"/>
<path d="M1515 3606 c-342 -57 -618 -199 -861 -441 -301 -300 -454 -668 -454
-1095 0 -253 51 -473 160 -691 80 -160 161 -271 295 -404 222 -222 474 -359
789 -427 86 -19 132 -22 306 -22 174 0 220 3 306 22 623 135 1078 591 1216
1217 19 85 22 130 22 305 0 174 -3 221 -22 306 -104 480 -401 868 -827 1079
-240 119 -389 155 -660 161 -129 2 -216 -1 -270 -10z m288 -338 c94 -226 220
-418 391 -595 171 -178 311 -283 516 -387 133 -69 210 -98 418 -161 89 -28
162 -52 162 -55 0 -3 -46 -18 -102 -34 -212 -61 -317 -100 -463 -172 -494
-245 -853 -682 -1000 -1219 l-33 -120 -10 40 c-6 22 -42 177 -81 345 -134 583
-146 678 -146 1125 0 336 6 419 46 659 18 108 172 855 186 901 4 12 17 -24 39
-100 18 -66 52 -168 77 -227z"/>
<path d="M5680 3474 c-402 -47 -634 -127 -866 -300 -136 -101 -250 -228 -338
-379 -46 -79 -126 -269 -126 -299 0 -16 11 -20 504 -171 138 -43 255 -79 261
-81 6 -3 19 21 29 53 73 233 250 405 486 473 116 34 320 39 429 11 97 -24 157
-56 213 -114 106 -110 145 -307 84 -426 -25 -47 -94 -99 -160 -120 -73 -24
-144 -37 -466 -91 -548 -92 -854 -179 -1073 -307 -123 -71 -250 -203 -304
-313 -74 -151 -102 -326 -83 -524 22 -241 88 -401 226 -545 171 -180 405 -271
693 -271 320 0 592 105 823 318 119 111 251 300 314 454 l28 68 56 0 56 0 13
-162 c11 -150 41 -413 59 -533 l7 -50 394 -3 393 -2 -6 52 c-7 66 -32 413 -47
658 -6 102 -14 473 -19 825 -8 684 -12 731 -65 932 -58 221 -143 379 -275 514
-225 230 -511 327 -985 334 -121 2 -236 1 -255 -1z m720 -1950 l0 -204 -34
-68 c-149 -295 -462 -517 -761 -538 -138 -11 -275 31 -362 110 -142 128 -163
402 -42 540 103 117 276 176 749 256 143 24 326 70 391 98 24 11 47 18 52 15
4 -2 7 -96 7 -209z"/>
<path d="M8880 3469 c-595 -61 -989 -339 -1097 -775 -23 -94 -23 -321 1 -424
64 -284 280 -497 655 -644 101 -40 551 -160 747 -200 320 -65 506 -129 594
-202 41 -35 80 -117 80 -170 0 -188 -153 -294 -469 -325 -228 -23 -492 20
-666 106 -162 81 -280 201 -327 332 -11 32 -21 60 -23 61 -2 2 -155 -58 -340
-134 l-336 -137 7 -31 c38 -183 157 -378 306 -505 199 -169 458 -274 808 -328
165 -25 617 -25 780 0 584 91 935 347 1046 762 27 98 27 399 1 495 -42 151
-145 301 -273 399 -78 59 -268 155 -394 199 -107 37 -346 98 -611 156 -488
106 -630 156 -716 249 -69 74 -82 174 -37 265 45 90 147 154 299 188 108 24
356 24 470 -1 227 -49 375 -152 454 -319 16 -33 32 -78 36 -98 4 -21 10 -38
13 -38 4 0 165 53 359 117 309 103 353 120 353 138 -1 37 -67 194 -116 277
-28 46 -88 123 -138 175 -221 232 -542 371 -955 413 -120 12 -388 11 -511 -1z"/>
<path d="M12173 3469 c-566 -54 -974 -325 -1086 -720 -70 -247 -36 -530 85
-716 117 -179 304 -314 580 -417 97 -36 580 -161 817 -211 237 -50 371 -96
464 -158 97 -66 133 -152 108 -263 -17 -72 -87 -150 -168 -187 -172 -77 -448
-95 -703 -47 -290 55 -523 225 -587 428 -9 28 -19 52 -22 52 -8 0 -663 -269
-668 -274 -10 -10 41 -166 77 -241 214 -434 759 -664 1520 -642 277 9 475 41
670 109 357 126 587 352 672 663 29 108 33 394 5 495 -61 229 -217 403 -471
525 -187 90 -403 152 -881 255 -466 100 -630 170 -686 295 -41 90 -12 215 66
284 176 154 635 173 913 38 127 -61 239 -191 277 -318 10 -35 20 -66 21 -68 2
-1 163 50 359 115 l356 119 -6 35 c-11 59 -71 197 -121 278 -62 99 -216 255
-319 322 -210 136 -465 219 -764 250 -117 11 -385 11 -508 -1z"/>
<path d="M15725 3474 c-359 -42 -607 -141 -858 -344 -407 -327 -627 -963 -566
-1630 37 -408 181 -744 424 -985 280 -279 669 -427 1166 -442 703 -22 1188
201 1418 652 58 113 142 345 125 345 -3 0 -171 36 -373 80 -203 44 -375 80
-382 80 -8 0 -27 -32 -43 -73 -86 -217 -208 -340 -399 -404 -77 -25 -94 -27
-257 -28 -154 0 -185 3 -254 23 -234 68 -417 233 -505 454 -31 78 -65 223 -76
324 l-7 61 544 6 c299 4 810 10 1136 13 l592 7 0 166 c0 205 -14 359 -46 519
-155 778 -669 1189 -1471 1181 -76 -1 -151 -4 -168 -5z m342 -699 c49 -9 112
-31 169 -59 198 -98 330 -308 351 -556 l6 -67 -414 -6 c-657 -11 -1009 -9
-1009 5 0 63 89 283 154 380 159 241 448 359 743 303z"/>
</g>
</svg>
